# xmcd
# Track frame offsets:
# 150
# 15945
# 32964
# 50488
# 65994
# 81353
# 97600
# 116100
#
# Disc length: 1768 seconds
# Revision: 0
# Processed by: cddbd v1.4PL0 Copyright (c) Steve Scherf et al.
# Submitted via: VisiTrax 2.9.5.180 - For more info visit www.synapsa.com
#
DISCID=6306e608
DTITLE=Various Artist - CDX228 December 1999
DYEAR=1999
DGENRE=
TTITLE0=Marty Raybon - Cracker Jack Diamond
TTITLE1=Sonya Isaacs - I've forgotten how you feel
TTITLE2=Chalee Tennison - Just because she lives there
TTITLE3=Tara Lyn Hart - Mine all mine
TTITLE4=Andy Griggs - She's more
TTITLE5=Jennifer Day - The fun of your love
TTITLE6=Jessica Andrews - Unbreakable heart
TTITLE7=Rambler - 1989 Memory lane
EXTD=
EXTT0=
EXTT1=
EXTT2=
EXTT3=
EXTT4=
EXTT5=
EXTT6=
EXTT7=
PLAYORDER=
